STARTFONT 2.1
FONT -FontForge-Monozela-Medium-R-Normal--36-360-75-75-P-180-ISO10646-1
SIZE 36 75 75
FONTBOUNDINGBOX 18 36 0 -9
COMMENT "Generated by fontforge, http://fontforge.sourceforge.net"
COMMENT "Copyright (c) 2020, Laurent Moussault"
STARTPROPERTIES 32
FOUNDRY "FontForge"
FAMILY_NAME "Monozela"
WEIGHT_NAME "Medium"
SLANT "R"
SETWIDTH_NAME "Normal"
ADD_STYLE_NAME ""
PIXEL_SIZE 36
POINT_SIZE 360
RESOLUTION_X 75
RESOLUTION_Y 75
SPACING "P"
AVERAGE_WIDTH 180
CHARSET_REGISTRY "ISO10646"
CHARSET_ENCODING "1"
FONTNAME_REGISTRY ""
CHARSET_COLLECTIONS "ISO10646-1"
FONT_NAME "Monozela"
FACE_NAME "Monozela"
COPYRIGHT "Copyright (c) 2020, Laurent Moussault"
FONT_VERSION "001.000"
FONT_ASCENT 27
FONT_DESCENT 9
UNDERLINE_POSITION 0
UNDERLINE_THICKNESS 2
X_HEIGHT 12
CAP_HEIGHT 24
RAW_ASCENT 750
RAW_DESCENT 250
NORM_SPACE 18
FIGURE_WIDTH 18
AVG_LOWERCASE_WIDTH 180
AVG_UPPERCASE_WIDTH 180
ENDPROPERTIES
CHARS 144
STARTCHAR uni0000
ENCODING 0
SWIDTH 500 0
DWIDTH 18 0
BBX 15 24 0 0
BITMAP
FC7E
FC7E
FC7E
E00E
E00E
E00E
0000
0000
0000
E00E
E00E
E00E
E00E
E00E
E00E
0000
0000
0000
E00E
E00E
E00E
FC7E
FC7E
FC7E
ENDCHAR
STARTCHAR uni0001
ENCODING 1
SWIDTH 500 0
DWIDTH 18 0
BBX 15 15 0 6
BITMAP
0380
0380
0380
1FF0
1FF0
1FF0
FFFE
FFFE
FFFE
1FF0
1FF0
1FF0
0380
0380
0380
ENDCHAR
STARTCHAR uni0002
ENCODING 2
SWIDTH 500 0
DWIDTH 18 0
BBX 18 36 0 -9
BITMAP
E38E00
E38E00
E38E00
1C71C0
1C71C0
1C71C0
E38E00
E38E00
E38E00
1C71C0
1C71C0
1C71C0
E38E00
E38E00
E38E00
1C71C0
1C71C0
1C71C0
E38E00
E38E00
E38E00
1C71C0
1C71C0
1C71C0
E38E00
E38E00
E38E00
1C71C0
1C71C0
1C71C0
E38E00
E38E00
E38E00
1C71C0
1C71C0
1C71C0
ENDCHAR
STARTCHAR uni0003
ENCODING 3
SWIDTH 500 0
DWIDTH 18 0
BBX 9 21 3 3
BITMAP
E380
E380
E380
FF80
FF80
FF80
E380
E380
E380
0000
0000
0000
FF80
FF80
FF80
1C00
1C00
1C00
1C00
1C00
1C00
ENDCHAR
STARTCHAR uni0004
ENCODING 4
SWIDTH 500 0
DWIDTH 18 0
BBX 9 21 3 3
BITMAP
FF80
FF80
FF80
FC00
FC00
FC00
E000
E000
E000
0000
0000
0000
FF80
FF80
FF80
FC00
FC00
FC00
E000
E000
E000
ENDCHAR
STARTCHAR uni0005
ENCODING 5
SWIDTH 500 0
DWIDTH 18 0
BBX 9 21 3 3
BITMAP
FF80
FF80
FF80
E000
E000
E000
FF80
FF80
FF80
0000
0000
0000
FC00
FC00
FC00
FF80
FF80
FF80
E380
E380
E380
ENDCHAR
STARTCHAR uni0006
ENCODING 6
SWIDTH 500 0
DWIDTH 18 0
BBX 9 21 6 3
BITMAP
E000
E000
E000
E000
E000
E000
FF80
FF80
FF80
0000
0000
0000
FF80
FF80
FF80
FC00
FC00
FC00
E000
E000
E000
ENDCHAR
STARTCHAR uni0007
ENCODING 7
SWIDTH 500 0
DWIDTH 18 0
BBX 12 12 3 12
BITMAP
1F80
1F80
1F80
E070
E070
E070
E070
E070
E070
1F80
1F80
1F80
ENDCHAR
STARTCHAR uni0008
ENCODING 8
SWIDTH 500 0
DWIDTH 18 0
BBX 15 21 0 3
BITMAP
0380
0380
0380
0380
0380
0380
FFFE
FFFE
FFFE
0380
0380
0380
0380
0380
0380
0000
0000
0000
FFFE
FFFE
FFFE
ENDCHAR
STARTCHAR uni0009
ENCODING 9
SWIDTH 500 0
DWIDTH 18 0
BBX 15 21 0 3
BITMAP
FC0E
FC0E
FC0E
E38E
E38E
E38E
E07E
E07E
E07E
0000
0000
0000
1C00
1C00
1C00
1C00
1C00
1C00
1FF0
1FF0
1FF0
ENDCHAR
STARTCHAR uni000A
ENCODING 10
SWIDTH 500 0
DWIDTH 18 0
BBX 9 21 3 3
BITMAP
E380
E380
E380
E380
E380
E380
1C00
1C00
1C00
0000
0000
0000
FF80
FF80
FF80
1C00
1C00
1C00
1C00
1C00
1C00
ENDCHAR
STARTCHAR uni000B
ENCODING 11
SWIDTH 500 0
DWIDTH 18 0
BBX 9 18 0 9
BITMAP
0380
0380
0380
0380
0380
0380
0380
0380
0380
0380
0380
0380
0380
0380
0380
FF80
FF80
FF80
ENDCHAR
STARTCHAR uni000C
ENCODING 12
SWIDTH 500 0
DWIDTH 18 0
BBX 9 21 0 -9
BITMAP
FF80
FF80
FF80
0380
0380
0380
0380
0380
0380
0380
0380
0380
0380
0380
0380
0380
0380
0380
0380
0380
0380
ENDCHAR
STARTCHAR uni000D
ENCODING 13
SWIDTH 500 0
DWIDTH 18 0
BBX 12 21 6 -9
BITMAP
FFF0
FFF0
FFF0
E000
E000
E000
E000
E000
E000
E000
E000
E000
E000
E000
E000
E000
E000
E000
E000
E000
E000
ENDCHAR
STARTCHAR uni000E
ENCODING 14
SWIDTH 500 0
DWIDTH 18 0
BBX 12 18 6 9
BITMAP
E000
E000
E000
E000
E000
E000
E000
E000
E000
E000
E000
E000
E000
E000
E000
FFF0
FFF0
FFF0
ENDCHAR
STARTCHAR uni000F
ENCODING 15
SWIDTH 500 0
DWIDTH 18 0
BBX 18 36 0 -9
BITMAP
038000
038000
038000
038000
038000
038000
038000
038000
038000
038000
038000
038000
038000
038000
038000
FFFFC0
FFFFC0
FFFFC0
038000
038000
038000
038000
038000
038000
038000
038000
038000
038000
038000
038000
038000
038000
038000
038000
038000
038000
ENDCHAR
STARTCHAR uni0010
ENCODING 16
SWIDTH 500 0
DWIDTH 18 0
BBX 15 24 0 0
BITMAP
FC7E
FC7E
FC7E
E00E
E00E
E00E
0000
0000
0000
E00E
E00E
E00E
E00E
E00E
E00E
0000
0000
0000
E00E
E00E
E00E
FC7E
FC7E
FC7E
ENDCHAR
STARTCHAR uni0011
ENCODING 17
SWIDTH 500 0
DWIDTH 18 0
BBX 15 24 0 0
BITMAP
FC7E
FC7E
FC7E
E00E
E00E
E00E
0000
0000
0000
E00E
E00E
E00E
E00E
E00E
E00E
0000
0000
0000
E00E
E00E
E00E
FC7E
FC7E
FC7E
ENDCHAR
STARTCHAR uni0012
ENCODING 18
SWIDTH 500 0
DWIDTH 18 0
BBX 18 3 0 9
BITMAP
FFFFC0
FFFFC0
FFFFC0
ENDCHAR
STARTCHAR uni0013
ENCODING 19
SWIDTH 500 0
DWIDTH 18 0
BBX 15 24 0 0
BITMAP
FC7E
FC7E
FC7E
E00E
E00E
E00E
0000
0000
0000
E00E
E00E
E00E
E00E
E00E
E00E
0000
0000
0000
E00E
E00E
E00E
FC7E
FC7E
FC7E
ENDCHAR
STARTCHAR uni0014
ENCODING 20
SWIDTH 500 0
DWIDTH 18 0
BBX 15 24 0 0
BITMAP
FC7E
FC7E
FC7E
E00E
E00E
E00E
0000
0000
0000
E00E
E00E
E00E
E00E
E00E
E00E
0000
0000
0000
E00E
E00E
E00E
FC7E
FC7E
FC7E
ENDCHAR
STARTCHAR uni0015
ENCODING 21
SWIDTH 500 0
DWIDTH 18 0
BBX 12 36 6 -9
BITMAP
E000
E000
E000
E000
E000
E000
E000
E000
E000
E000
E000
E000
E000
E000
E000
FFF0
FFF0
FFF0
E000
E000
E000
E000
E000
E000
E000
E000
E000
E000
E000
E000
E000
E000
E000
E000
E000
E000
ENDCHAR
STARTCHAR uni0016
ENCODING 22
SWIDTH 500 0
DWIDTH 18 0
BBX 9 36 0 -9
BITMAP
0380
0380
0380
0380
0380
0380
0380
0380
0380
0380
0380
0380
0380
0380
0380
FF80
FF80
FF80
0380
0380
0380
0380
0380
0380
0380
0380
0380
0380
0380
0380
0380
0380
0380
0380
0380
0380
ENDCHAR
STARTCHAR uni0017
ENCODING 23
SWIDTH 500 0
DWIDTH 18 0
BBX 18 18 0 9
BITMAP
038000
038000
038000
038000
038000
038000
038000
038000
038000
038000
038000
038000
038000
038000
038000
FFFFC0
FFFFC0
FFFFC0
ENDCHAR
STARTCHAR uni0018
ENCODING 24
SWIDTH 500 0
DWIDTH 18 0
BBX 18 21 0 -9
BITMAP
FFFFC0
FFFFC0
FFFFC0
038000
038000
038000
038000
038000
038000
038000
038000
038000
038000
038000
038000
038000
038000
038000
038000
038000
038000
ENDCHAR
STARTCHAR uni0019
ENCODING 25
SWIDTH 500 0
DWIDTH 18 0
BBX 3 36 6 -9
BITMAP
E0
E0
E0
E0
E0
E0
E0
E0
E0
E0
E0
E0
E0
E0
E0
E0
E0
E0
E0
E0
E0
E0
E0
E0
E0
E0
E0
E0
E0
E0
E0
E0
E0
E0
E0
E0
ENDCHAR
STARTCHAR uni001A
ENCODING 26
SWIDTH 500 0
DWIDTH 18 0
BBX 12 21 3 3
BITMAP
0380
0380
0380
1C00
1C00
1C00
E000
E000
E000
1C00
1C00
1C00
0380
0380
0380
0000
0000
0000
FFF0
FFF0
FFF0
ENDCHAR
STARTCHAR uni001B
ENCODING 27
SWIDTH 500 0
DWIDTH 18 0
BBX 12 21 3 3
BITMAP
1C00
1C00
1C00
0380
0380
0380
0070
0070
0070
0380
0380
0380
1C00
1C00
1C00
0000
0000
0000
FFF0
FFF0
FFF0
ENDCHAR
STARTCHAR uni001C
ENCODING 28
SWIDTH 500 0
DWIDTH 18 0
BBX 15 15 0 0
BITMAP
FFFE
FFFE
FFFE
E00E
E00E
E00E
E00E
E00E
E00E
E00E
E00E
E00E
E00E
E00E
E00E
ENDCHAR
STARTCHAR uni001D
ENCODING 29
SWIDTH 500 0
DWIDTH 18 0
BBX 15 15 0 3
BITMAP
0070
0070
0070
FFFE
FFFE
FFFE
0380
0380
0380
FFFE
FFFE
FFFE
1C00
1C00
1C00
ENDCHAR
STARTCHAR uni001E
ENCODING 30
SWIDTH 500 0
DWIDTH 18 0
BBX 15 24 0 0
BITMAP
03F0
03F0
03F0
1C0E
1C0E
1C0E
1C00
1C00
1C00
FFF0
FFF0
FFF0
1C00
1C00
1C00
1C00
1C00
1C00
1C0E
1C0E
1C0E
FFFE
FFFE
FFFE
ENDCHAR
STARTCHAR uni001F
ENCODING 31
SWIDTH 500 0
DWIDTH 18 0
BBX 6 6 6 9
BITMAP
FC
FC
FC
FC
FC
FC
ENDCHAR
STARTCHAR space
ENCODING 32
SWIDTH 500 0
DWIDTH 18 0
BBX 1 1 2 0
BITMAP
00
ENDCHAR
STARTCHAR exclam
ENCODING 33
SWIDTH 500 0
DWIDTH 18 0
BBX 3 18 6 0
BITMAP
E0
E0
E0
E0
E0
E0
E0
E0
E0
E0
E0
E0
00
00
00
E0
E0
E0
ENDCHAR
STARTCHAR quotedbl
ENCODING 34
SWIDTH 500 0
DWIDTH 18 0
BBX 9 6 3 18
BITMAP
E380
E380
E380
E380
E380
E380
ENDCHAR
STARTCHAR numbersign
ENCODING 35
SWIDTH 500 0
DWIDTH 18 0
BBX 15 21 0 0
BITMAP
1C70
1C70
1C70
1C70
1C70
1C70
FFFE
FFFE
FFFE
1C70
1C70
1C70
FFFE
FFFE
FFFE
1C70
1C70
1C70
1C70
1C70
1C70
ENDCHAR
STARTCHAR dollar
ENCODING 36
SWIDTH 500 0
DWIDTH 18 0
BBX 15 21 0 0
BITMAP
0380
0380
0380
1FFE
1FFE
1FFE
E380
E380
E380
1FF0
1FF0
1FF0
038E
038E
038E
FFF0
FFF0
FFF0
0380
0380
0380
ENDCHAR
STARTCHAR percent
ENCODING 37
SWIDTH 500 0
DWIDTH 18 0
BBX 15 21 0 0
BITMAP
FC00
FC00
FC00
FC0E
FC0E
FC0E
0070
0070
0070
0380
0380
0380
1C00
1C00
1C00
E07E
E07E
E07E
007E
007E
007E
ENDCHAR
STARTCHAR ampersand
ENCODING 38
SWIDTH 500 0
DWIDTH 18 0
BBX 15 21 0 0
BITMAP
1C00
1C00
1C00
E380
E380
E380
1C00
1C00
1C00
E38E
E38E
E38E
E070
E070
E070
E070
E070
E070
1F8E
1F8E
1F8E
ENDCHAR
STARTCHAR quotesingle
ENCODING 39
SWIDTH 500 0
DWIDTH 18 0
BBX 3 9 6 15
BITMAP
E0
E0
E0
E0
E0
E0
E0
E0
E0
ENDCHAR
STARTCHAR parenleft
ENCODING 40
SWIDTH 500 0
DWIDTH 18 0
BBX 9 27 3 -3
BITMAP
0380
0380
0380
1C00
1C00
1C00
E000
E000
E000
E000
E000
E000
E000
E000
E000
E000
E000
E000
E000
E000
E000
1C00
1C00
1C00
0380
0380
0380
ENDCHAR
STARTCHAR parenright
ENCODING 41
SWIDTH 500 0
DWIDTH 18 0
BBX 9 27 3 -3
BITMAP
E000
E000
E000
1C00
1C00
1C00
0380
0380
0380
0380
0380
0380
0380
0380
0380
0380
0380
0380
0380
0380
0380
1C00
1C00
1C00
E000
E000
E000
ENDCHAR
STARTCHAR asterisk
ENCODING 42
SWIDTH 500 0
DWIDTH 18 0
BBX 15 15 0 3
BITMAP
0380
0380
0380
E38E
E38E
E38E
1FF0
1FF0
1FF0
E38E
E38E
E38E
0380
0380
0380
ENDCHAR
STARTCHAR plus
ENCODING 43
SWIDTH 500 0
DWIDTH 18 0
BBX 15 15 0 3
BITMAP
0380
0380
0380
0380
0380
0380
FFFE
FFFE
FFFE
0380
0380
0380
0380
0380
0380
ENDCHAR
STARTCHAR comma
ENCODING 44
SWIDTH 500 0
DWIDTH 18 0
BBX 6 9 3 -6
BITMAP
1C
1C
1C
1C
1C
1C
E0
E0
E0
ENDCHAR
STARTCHAR hyphen
ENCODING 45
SWIDTH 500 0
DWIDTH 18 0
BBX 12 3 0 9
BITMAP
FFF0
FFF0
FFF0
ENDCHAR
STARTCHAR period
ENCODING 46
SWIDTH 500 0
DWIDTH 18 0
BBX 3 3 6 0
BITMAP
E0
E0
E0
ENDCHAR
STARTCHAR slash
ENCODING 47
SWIDTH 500 0
DWIDTH 18 0
BBX 9 27 3 -3
BITMAP
0380
0380
0380
0380
0380
0380
0380
0380
0380
1C00
1C00
1C00
1C00
1C00
1C00
1C00
1C00
1C00
E000
E000
E000
E000
E000
E000
E000
E000
E000
ENDCHAR
STARTCHAR zero
ENCODING 48
SWIDTH 500 0
DWIDTH 18 0
BBX 15 21 0 0
BITMAP
1FF0
1FF0
1FF0
E00E
E00E
E00E
E07E
E07E
E07E
E38E
E38E
E38E
FC0E
FC0E
FC0E
E00E
E00E
E00E
1FF0
1FF0
1FF0
ENDCHAR
STARTCHAR one
ENCODING 49
SWIDTH 500 0
DWIDTH 18 0
BBX 15 21 0 0
BITMAP
0380
0380
0380
1F80
1F80
1F80
E380
E380
E380
0380
0380
0380
0380
0380
0380
0380
0380
0380
FFFE
FFFE
FFFE
ENDCHAR
STARTCHAR two
ENCODING 50
SWIDTH 500 0
DWIDTH 18 0
BBX 15 21 0 0
BITMAP
1FF0
1FF0
1FF0
E00E
E00E
E00E
000E
000E
000E
0070
0070
0070
0380
0380
0380
1C00
1C00
1C00
FFFE
FFFE
FFFE
ENDCHAR
STARTCHAR three
ENCODING 51
SWIDTH 500 0
DWIDTH 18 0
BBX 15 21 0 0
BITMAP
1FF0
1FF0
1FF0
E00E
E00E
E00E
000E
000E
000E
03F0
03F0
03F0
000E
000E
000E
E00E
E00E
E00E
1FF0
1FF0
1FF0
ENDCHAR
STARTCHAR four
ENCODING 52
SWIDTH 500 0
DWIDTH 18 0
BBX 15 24 0 -3
BITMAP
0380
0380
0380
0380
0380
0380
1C00
1C00
1C00
1C70
1C70
1C70
E070
E070
E070
FFFE
FFFE
FFFE
0070
0070
0070
0070
0070
0070
ENDCHAR
STARTCHAR five
ENCODING 53
SWIDTH 500 0
DWIDTH 18 0
BBX 15 21 0 0
BITMAP
FFFE
FFFE
FFFE
E000
E000
E000
FFF0
FFF0
FFF0
000E
000E
000E
000E
000E
000E
E00E
E00E
E00E
1FF0
1FF0
1FF0
ENDCHAR
STARTCHAR six
ENCODING 54
SWIDTH 500 0
DWIDTH 18 0
BBX 15 21 0 0
BITMAP
03F0
03F0
03F0
1C00
1C00
1C00
E000
E000
E000
FFF0
FFF0
FFF0
E00E
E00E
E00E
E00E
E00E
E00E
1FF0
1FF0
1FF0
ENDCHAR
STARTCHAR seven
ENCODING 55
SWIDTH 500 0
DWIDTH 18 0
BBX 15 21 0 0
BITMAP
FFFE
FFFE
FFFE
000E
000E
000E
0070
0070
0070
0380
0380
0380
1C00
1C00
1C00
1C00
1C00
1C00
1C00
1C00
1C00
ENDCHAR
STARTCHAR eight
ENCODING 56
SWIDTH 500 0
DWIDTH 18 0
BBX 15 21 0 0
BITMAP
1FF0
1FF0
1FF0
E00E
E00E
E00E
E00E
E00E
E00E
1FF0
1FF0
1FF0
E00E
E00E
E00E
E00E
E00E
E00E
1FF0
1FF0
1FF0
ENDCHAR
STARTCHAR nine
ENCODING 57
SWIDTH 500 0
DWIDTH 18 0
BBX 15 21 0 0
BITMAP
1FF0
1FF0
1FF0
E00E
E00E
E00E
E00E
E00E
E00E
1FFE
1FFE
1FFE
000E
000E
000E
0070
0070
0070
1F80
1F80
1F80
ENDCHAR
STARTCHAR colon
ENCODING 58
SWIDTH 500 0
DWIDTH 18 0
BBX 3 12 6 3
BITMAP
E0
E0
E0
00
00
00
00
00
00
E0
E0
E0
ENDCHAR
STARTCHAR semicolon
ENCODING 59
SWIDTH 500 0
DWIDTH 18 0
BBX 6 18 3 -6
BITMAP
1C
1C
1C
00
00
00
00
00
00
1C
1C
1C
1C
1C
1C
E0
E0
E0
ENDCHAR
STARTCHAR less
ENCODING 60
SWIDTH 500 0
DWIDTH 18 0
BBX 12 21 0 0
BITMAP
0070
0070
0070
0380
0380
0380
1C00
1C00
1C00
E000
E000
E000
1C00
1C00
1C00
0380
0380
0380
0070
0070
0070
ENDCHAR
STARTCHAR equal
ENCODING 61
SWIDTH 500 0
DWIDTH 18 0
BBX 12 9 0 6
BITMAP
FFF0
FFF0
FFF0
0000
0000
0000
FFF0
FFF0
FFF0
ENDCHAR
STARTCHAR greater
ENCODING 62
SWIDTH 500 0
DWIDTH 18 0
BBX 12 21 0 0
BITMAP
E000
E000
E000
1C00
1C00
1C00
0380
0380
0380
0070
0070
0070
0380
0380
0380
1C00
1C00
1C00
E000
E000
E000
ENDCHAR
STARTCHAR question
ENCODING 63
SWIDTH 500 0
DWIDTH 18 0
BBX 15 21 0 0
BITMAP
1FF0
1FF0
1FF0
E00E
E00E
E00E
000E
000E
000E
0070
0070
0070
0380
0380
0380
0000
0000
0000
0380
0380
0380
ENDCHAR
STARTCHAR at
ENCODING 64
SWIDTH 500 0
DWIDTH 18 0
BBX 15 21 0 0
BITMAP
1FF0
1FF0
1FF0
E00E
E00E
E00E
E38E
E38E
E38E
E38E
E38E
E38E
E070
E070
E070
1C00
1C00
1C00
03F0
03F0
03F0
ENDCHAR
STARTCHAR A
ENCODING 65
SWIDTH 500 0
DWIDTH 18 0
BBX 15 21 0 0
BITMAP
1FF0
1FF0
1FF0
E00E
E00E
E00E
E00E
E00E
E00E
FFFE
FFFE
FFFE
E00E
E00E
E00E
E00E
E00E
E00E
E00E
E00E
E00E
ENDCHAR
STARTCHAR B
ENCODING 66
SWIDTH 500 0
DWIDTH 18 0
BBX 15 21 0 0
BITMAP
FFF0
FFF0
FFF0
E00E
E00E
E00E
E00E
E00E
E00E
FFF0
FFF0
FFF0
E00E
E00E
E00E
E00E
E00E
E00E
FFF0
FFF0
FFF0
ENDCHAR
STARTCHAR C
ENCODING 67
SWIDTH 500 0
DWIDTH 18 0
BBX 15 21 0 0
BITMAP
1FF0
1FF0
1FF0
E00E
E00E
E00E
E000
E000
E000
E000
E000
E000
E000
E000
E000
E00E
E00E
E00E
1FF0
1FF0
1FF0
ENDCHAR
STARTCHAR D
ENCODING 68
SWIDTH 500 0
DWIDTH 18 0
BBX 15 21 0 0
BITMAP
FF80
FF80
FF80
E070
E070
E070
E00E
E00E
E00E
E00E
E00E
E00E
E00E
E00E
E00E
E070
E070
E070
FF80
FF80
FF80
ENDCHAR
STARTCHAR E
ENCODING 69
SWIDTH 500 0
DWIDTH 18 0
BBX 15 21 0 0
BITMAP
FFFE
FFFE
FFFE
E000
E000
E000
E000
E000
E000
FF80
FF80
FF80
E000
E000
E000
E000
E000
E000
FFFE
FFFE
FFFE
ENDCHAR
STARTCHAR F
ENCODING 70
SWIDTH 500 0
DWIDTH 18 0
BBX 15 21 0 0
BITMAP
FFFE
FFFE
FFFE
E000
E000
E000
E000
E000
E000
FF80
FF80
FF80
E000
E000
E000
E000
E000
E000
E000
E000
E000
ENDCHAR
STARTCHAR G
ENCODING 71
SWIDTH 500 0
DWIDTH 18 0
BBX 15 21 0 0
BITMAP
1FF0
1FF0
1FF0
E00E
E00E
E00E
E000
E000
E000
E000
E000
E000
E07E
E07E
E07E
E00E
E00E
E00E
1FFE
1FFE
1FFE
ENDCHAR
STARTCHAR H
ENCODING 72
SWIDTH 500 0
DWIDTH 18 0
BBX 15 21 0 0
BITMAP
E00E
E00E
E00E
E00E
E00E
E00E
E00E
E00E
E00E
FFFE
FFFE
FFFE
E00E
E00E
E00E
E00E
E00E
E00E
E00E
E00E
E00E
ENDCHAR
STARTCHAR I
ENCODING 73
SWIDTH 500 0
DWIDTH 18 0
BBX 15 21 0 0
BITMAP
FFFE
FFFE
FFFE
0380
0380
0380
0380
0380
0380
0380
0380
0380
0380
0380
0380
0380
0380
0380
FFFE
FFFE
FFFE
ENDCHAR
STARTCHAR J
ENCODING 74
SWIDTH 500 0
DWIDTH 18 0
BBX 15 21 0 0
BITMAP
03FE
03FE
03FE
000E
000E
000E
000E
000E
000E
000E
000E
000E
000E
000E
000E
E00E
E00E
E00E
1FF0
1FF0
1FF0
ENDCHAR
STARTCHAR K
ENCODING 75
SWIDTH 500 0
DWIDTH 18 0
BBX 15 21 0 0
BITMAP
E00E
E00E
E00E
E070
E070
E070
E380
E380
E380
FC00
FC00
FC00
E380
E380
E380
E070
E070
E070
E00E
E00E
E00E
ENDCHAR
STARTCHAR L
ENCODING 76
SWIDTH 500 0
DWIDTH 18 0
BBX 15 21 0 0
BITMAP
E000
E000
E000
E000
E000
E000
E000
E000
E000
E000
E000
E000
E000
E000
E000
E000
E000
E000
FFFE
FFFE
FFFE
ENDCHAR
STARTCHAR M
ENCODING 77
SWIDTH 500 0
DWIDTH 18 0
BBX 15 21 0 0
BITMAP
E00E
E00E
E00E
FC7E
FC7E
FC7E
E38E
E38E
E38E
E38E
E38E
E38E
E00E
E00E
E00E
E00E
E00E
E00E
E00E
E00E
E00E
ENDCHAR
STARTCHAR N
ENCODING 78
SWIDTH 500 0
DWIDTH 18 0
BBX 15 21 0 0
BITMAP
E00E
E00E
E00E
FC0E
FC0E
FC0E
E38E
E38E
E38E
E07E
E07E
E07E
E00E
E00E
E00E
E00E
E00E
E00E
E00E
E00E
E00E
ENDCHAR
STARTCHAR O
ENCODING 79
SWIDTH 500 0
DWIDTH 18 0
BBX 15 21 0 0
BITMAP
1FF0
1FF0
1FF0
E00E
E00E
E00E
E00E
E00E
E00E
E00E
E00E
E00E
E00E
E00E
E00E
E00E
E00E
E00E
1FF0
1FF0
1FF0
ENDCHAR
STARTCHAR P
ENCODING 80
SWIDTH 500 0
DWIDTH 18 0
BBX 15 21 0 0
BITMAP
FFF0
FFF0
FFF0
E00E
E00E
E00E
E00E
E00E
E00E
FFF0
FFF0
FFF0
E000
E000
E000
E000
E000
E000
E000
E000
E000
ENDCHAR
STARTCHAR Q
ENCODING 81
SWIDTH 500 0
DWIDTH 18 0
BBX 15 21 0 0
BITMAP
1FF0
1FF0
1FF0
E00E
E00E
E00E
E00E
E00E
E00E
E00E
E00E
E00E
E38E
E38E
E38E
E070
E070
E070
1F8E
1F8E
1F8E
ENDCHAR
STARTCHAR R
ENCODING 82
SWIDTH 500 0
DWIDTH 18 0
BBX 15 21 0 0
BITMAP
FFF0
FFF0
FFF0
E00E
E00E
E00E
E00E
E00E
E00E
FFF0
FFF0
FFF0
E380
E380
E380
E070
E070
E070
E00E
E00E
E00E
ENDCHAR
STARTCHAR S
ENCODING 83
SWIDTH 500 0
DWIDTH 18 0
BBX 15 21 0 0
BITMAP
1FF0
1FF0
1FF0
E00E
E00E
E00E
E000
E000
E000
1FF0
1FF0
1FF0
000E
000E
000E
E00E
E00E
E00E
1FF0
1FF0
1FF0
ENDCHAR
STARTCHAR T
ENCODING 84
SWIDTH 500 0
DWIDTH 18 0
BBX 15 21 0 0
BITMAP
FFFE
FFFE
FFFE
0380
0380
0380
0380
0380
0380
0380
0380
0380
0380
0380
0380
0380
0380
0380
0380
0380
0380
ENDCHAR
STARTCHAR U
ENCODING 85
SWIDTH 500 0
DWIDTH 18 0
BBX 15 21 0 0
BITMAP
E00E
E00E
E00E
E00E
E00E
E00E
E00E
E00E
E00E
E00E
E00E
E00E
E00E
E00E
E00E
E00E
E00E
E00E
1FF0
1FF0
1FF0
ENDCHAR
STARTCHAR V
ENCODING 86
SWIDTH 500 0
DWIDTH 18 0
BBX 15 21 0 0
BITMAP
E00E
E00E
E00E
E00E
E00E
E00E
E00E
E00E
E00E
1C70
1C70
1C70
1C70
1C70
1C70
0380
0380
0380
0380
0380
0380
ENDCHAR
STARTCHAR W
ENCODING 87
SWIDTH 500 0
DWIDTH 18 0
BBX 15 21 0 0
BITMAP
E00E
E00E
E00E
E00E
E00E
E00E
E38E
E38E
E38E
E38E
E38E
E38E
E38E
E38E
E38E
E38E
E38E
E38E
1C70
1C70
1C70
ENDCHAR
STARTCHAR X
ENCODING 88
SWIDTH 500 0
DWIDTH 18 0
BBX 15 21 0 0
BITMAP
E00E
E00E
E00E
E00E
E00E
E00E
1C70
1C70
1C70
0380
0380
0380
1C70
1C70
1C70
E00E
E00E
E00E
E00E
E00E
E00E
ENDCHAR
STARTCHAR Y
ENCODING 89
SWIDTH 500 0
DWIDTH 18 0
BBX 15 21 0 0
BITMAP
E00E
E00E
E00E
E00E
E00E
E00E
E00E
E00E
E00E
1C70
1C70
1C70
0380
0380
0380
0380
0380
0380
0380
0380
0380
ENDCHAR
STARTCHAR Z
ENCODING 90
SWIDTH 500 0
DWIDTH 18 0
BBX 15 21 0 0
BITMAP
FFFE
FFFE
FFFE
000E
000E
000E
0070
0070
0070
0380
0380
0380
1C00
1C00
1C00
E000
E000
E000
FFFE
FFFE
FFFE
ENDCHAR
STARTCHAR bracketleft
ENCODING 91
SWIDTH 500 0
DWIDTH 18 0
BBX 9 27 3 -3
BITMAP
FF80
FF80
FF80
E000
E000
E000
E000
E000
E000
E000
E000
E000
E000
E000
E000
E000
E000
E000
E000
E000
E000
E000
E000
E000
FF80
FF80
FF80
ENDCHAR
STARTCHAR backslash
ENCODING 92
SWIDTH 500 0
DWIDTH 18 0
BBX 9 27 6 -3
BITMAP
E000
E000
E000
E000
E000
E000
E000
E000
E000
1C00
1C00
1C00
1C00
1C00
1C00
1C00
1C00
1C00
0380
0380
0380
0380
0380
0380
0380
0380
0380
ENDCHAR
STARTCHAR bracketright
ENCODING 93
SWIDTH 500 0
DWIDTH 18 0
BBX 9 27 3 -3
BITMAP
FF80
FF80
FF80
0380
0380
0380
0380
0380
0380
0380
0380
0380
0380
0380
0380
0380
0380
0380
0380
0380
0380
0380
0380
0380
FF80
FF80
FF80
ENDCHAR
STARTCHAR asciicircum
ENCODING 94
SWIDTH 500 0
DWIDTH 18 0
BBX 15 9 0 15
BITMAP
0380
0380
0380
1C70
1C70
1C70
E00E
E00E
E00E
ENDCHAR
STARTCHAR underscore
ENCODING 95
SWIDTH 500 0
DWIDTH 18 0
BBX 15 3 0 -3
BITMAP
FFFE
FFFE
FFFE
ENDCHAR
STARTCHAR grave
ENCODING 96
SWIDTH 500 0
DWIDTH 18 0
BBX 6 6 3 18
BITMAP
E0
E0
E0
1C
1C
1C
ENDCHAR
STARTCHAR a
ENCODING 97
SWIDTH 500 0
DWIDTH 18 0
BBX 15 15 0 0
BITMAP
1FF0
1FF0
1FF0
E00E
E00E
E00E
E00E
E00E
E00E
E07E
E07E
E07E
1F8E
1F8E
1F8E
ENDCHAR
STARTCHAR b
ENCODING 98
SWIDTH 500 0
DWIDTH 18 0
BBX 15 21 0 0
BITMAP
E000
E000
E000
E000
E000
E000
FFF0
FFF0
FFF0
E00E
E00E
E00E
E00E
E00E
E00E
E00E
E00E
E00E
FFF0
FFF0
FFF0
ENDCHAR
STARTCHAR c
ENCODING 99
SWIDTH 500 0
DWIDTH 18 0
BBX 15 15 0 0
BITMAP
1FF0
1FF0
1FF0
E00E
E00E
E00E
E000
E000
E000
E000
E000
E000
1FFE
1FFE
1FFE
ENDCHAR
STARTCHAR d
ENCODING 100
SWIDTH 500 0
DWIDTH 18 0
BBX 15 21 0 0
BITMAP
000E
000E
000E
000E
000E
000E
1FFE
1FFE
1FFE
E00E
E00E
E00E
E00E
E00E
E00E
E00E
E00E
E00E
1FFE
1FFE
1FFE
ENDCHAR
STARTCHAR e
ENCODING 101
SWIDTH 500 0
DWIDTH 18 0
BBX 15 15 0 0
BITMAP
1FF0
1FF0
1FF0
E00E
E00E
E00E
FFFE
FFFE
FFFE
E000
E000
E000
1FF0
1FF0
1FF0
ENDCHAR
STARTCHAR f
ENCODING 102
SWIDTH 500 0
DWIDTH 18 0
BBX 15 21 0 0
BITMAP
03FE
03FE
03FE
1C00
1C00
1C00
1C00
1C00
1C00
FFF0
FFF0
FFF0
1C00
1C00
1C00
1C00
1C00
1C00
1C00
1C00
1C00
ENDCHAR
STARTCHAR g
ENCODING 103
SWIDTH 500 0
DWIDTH 18 0
BBX 15 21 0 -6
BITMAP
1FFE
1FFE
1FFE
E00E
E00E
E00E
E00E
E00E
E00E
E00E
E00E
E00E
1FFE
1FFE
1FFE
000E
000E
000E
1FF0
1FF0
1FF0
ENDCHAR
STARTCHAR h
ENCODING 104
SWIDTH 500 0
DWIDTH 18 0
BBX 15 21 0 0
BITMAP
E000
E000
E000
E000
E000
E000
E3F0
E3F0
E3F0
FC0E
FC0E
FC0E
E00E
E00E
E00E
E00E
E00E
E00E
E00E
E00E
E00E
ENDCHAR
STARTCHAR i
ENCODING 105
SWIDTH 500 0
DWIDTH 18 0
BBX 9 21 3 0
BITMAP
1C00
1C00
1C00
0000
0000
0000
FC00
FC00
FC00
1C00
1C00
1C00
1C00
1C00
1C00
1C00
1C00
1C00
FF80
FF80
FF80
ENDCHAR
STARTCHAR j
ENCODING 106
SWIDTH 500 0
DWIDTH 18 0
BBX 15 27 0 -6
BITMAP
000E
000E
000E
0000
0000
0000
007E
007E
007E
000E
000E
000E
000E
000E
000E
000E
000E
000E
000E
000E
000E
E00E
E00E
E00E
1FF0
1FF0
1FF0
ENDCHAR
STARTCHAR k
ENCODING 107
SWIDTH 500 0
DWIDTH 18 0
BBX 15 21 0 0
BITMAP
E000
E000
E000
E000
E000
E000
E00E
E00E
E00E
E070
E070
E070
FF80
FF80
FF80
E070
E070
E070
E00E
E00E
E00E
ENDCHAR
STARTCHAR l
ENCODING 108
SWIDTH 500 0
DWIDTH 18 0
BBX 15 21 0 0
BITMAP
FC00
FC00
FC00
1C00
1C00
1C00
1C00
1C00
1C00
1C00
1C00
1C00
1C00
1C00
1C00
1C00
1C00
1C00
03FE
03FE
03FE
ENDCHAR
STARTCHAR m
ENCODING 109
SWIDTH 500 0
DWIDTH 18 0
BBX 15 15 0 0
BITMAP
FC70
FC70
FC70
E38E
E38E
E38E
E38E
E38E
E38E
E00E
E00E
E00E
E00E
E00E
E00E
ENDCHAR
STARTCHAR n
ENCODING 110
SWIDTH 500 0
DWIDTH 18 0
BBX 15 15 0 0
BITMAP
E3F0
E3F0
E3F0
FC0E
FC0E
FC0E
E00E
E00E
E00E
E00E
E00E
E00E
E00E
E00E
E00E
ENDCHAR
STARTCHAR o
ENCODING 111
SWIDTH 500 0
DWIDTH 18 0
BBX 15 15 0 0
BITMAP
1FF0
1FF0
1FF0
E00E
E00E
E00E
E00E
E00E
E00E
E00E
E00E
E00E
1FF0
1FF0
1FF0
ENDCHAR
STARTCHAR p
ENCODING 112
SWIDTH 500 0
DWIDTH 18 0
BBX 15 21 0 -6
BITMAP
FFF0
FFF0
FFF0
E00E
E00E
E00E
E00E
E00E
E00E
E00E
E00E
E00E
FFF0
FFF0
FFF0
E000
E000
E000
E000
E000
E000
ENDCHAR
STARTCHAR q
ENCODING 113
SWIDTH 500 0
DWIDTH 18 0
BBX 15 21 0 -6
BITMAP
1FFE
1FFE
1FFE
E00E
E00E
E00E
E00E
E00E
E00E
E00E
E00E
E00E
1FFE
1FFE
1FFE
000E
000E
000E
000E
000E
000E
ENDCHAR
STARTCHAR r
ENCODING 114
SWIDTH 500 0
DWIDTH 18 0
BBX 15 15 0 0
BITMAP
E3F0
E3F0
E3F0
FC0E
FC0E
FC0E
E000
E000
E000
E000
E000
E000
E000
E000
E000
ENDCHAR
STARTCHAR s
ENCODING 115
SWIDTH 500 0
DWIDTH 18 0
BBX 15 15 0 0
BITMAP
1FF0
1FF0
1FF0
E000
E000
E000
1FF0
1FF0
1FF0
000E
000E
000E
FFF0
FFF0
FFF0
ENDCHAR
STARTCHAR t
ENCODING 116
SWIDTH 500 0
DWIDTH 18 0
BBX 15 21 0 0
BITMAP
1C00
1C00
1C00
1C00
1C00
1C00
FFF0
FFF0
FFF0
1C00
1C00
1C00
1C00
1C00
1C00
1C00
1C00
1C00
03FE
03FE
03FE
ENDCHAR
STARTCHAR u
ENCODING 117
SWIDTH 500 0
DWIDTH 18 0
BBX 15 15 0 0
BITMAP
E00E
E00E
E00E
E00E
E00E
E00E
E00E
E00E
E00E
E07E
E07E
E07E
1F8E
1F8E
1F8E
ENDCHAR
STARTCHAR v
ENCODING 118
SWIDTH 500 0
DWIDTH 18 0
BBX 15 15 0 0
BITMAP
E00E
E00E
E00E
E00E
E00E
E00E
1C70
1C70
1C70
1C70
1C70
1C70
0380
0380
0380
ENDCHAR
STARTCHAR w
ENCODING 119
SWIDTH 500 0
DWIDTH 18 0
BBX 15 15 0 0
BITMAP
E00E
E00E
E00E
E00E
E00E
E00E
E38E
E38E
E38E
E38E
E38E
E38E
1C70
1C70
1C70
ENDCHAR
STARTCHAR x
ENCODING 120
SWIDTH 500 0
DWIDTH 18 0
BBX 15 15 0 0
BITMAP
E00E
E00E
E00E
1C70
1C70
1C70
0380
0380
0380
1C70
1C70
1C70
E00E
E00E
E00E
ENDCHAR
STARTCHAR y
ENCODING 121
SWIDTH 500 0
DWIDTH 18 0
BBX 15 21 0 -6
BITMAP
E00E
E00E
E00E
E00E
E00E
E00E
1C70
1C70
1C70
1C70
1C70
1C70
0380
0380
0380
0380
0380
0380
FC00
FC00
FC00
ENDCHAR
STARTCHAR z
ENCODING 122
SWIDTH 500 0
DWIDTH 18 0
BBX 15 15 0 0
BITMAP
FFFE
FFFE
FFFE
0070
0070
0070
0380
0380
0380
1C00
1C00
1C00
FFFE
FFFE
FFFE
ENDCHAR
STARTCHAR braceleft
ENCODING 123
SWIDTH 500 0
DWIDTH 18 0
BBX 12 27 0 -3
BITMAP
03F0
03F0
03F0
1C00
1C00
1C00
1C00
1C00
1C00
0380
0380
0380
FC00
FC00
FC00
0380
0380
0380
1C00
1C00
1C00
1C00
1C00
1C00
03F0
03F0
03F0
ENDCHAR
STARTCHAR bar
ENCODING 124
SWIDTH 500 0
DWIDTH 18 0
BBX 3 33 6 -6
BITMAP
E0
E0
E0
E0
E0
E0
E0
E0
E0
E0
E0
E0
E0
E0
E0
E0
E0
E0
E0
E0
E0
E0
E0
E0
E0
E0
E0
E0
E0
E0
E0
E0
E0
ENDCHAR
STARTCHAR braceright
ENCODING 125
SWIDTH 500 0
DWIDTH 18 0
BBX 12 27 3 -3
BITMAP
FC00
FC00
FC00
0380
0380
0380
0380
0380
0380
1C00
1C00
1C00
03F0
03F0
03F0
1C00
1C00
1C00
0380
0380
0380
0380
0380
0380
FC00
FC00
FC00
ENDCHAR
STARTCHAR asciitilde
ENCODING 126
SWIDTH 500 0
DWIDTH 18 0
BBX 15 6 0 6
BITMAP
1F8E
1F8E
1F8E
E3F0
E3F0
E3F0
ENDCHAR
STARTCHAR uni007F
ENCODING 127
SWIDTH 500 0
DWIDTH 18 0
BBX 1 1 0 0
BITMAP
00
ENDCHAR
STARTCHAR uniE0B0
ENCODING 57520
SWIDTH 500 0
DWIDTH 18 0
BBX 18 36 0 -9
BITMAP
E00000
E00000
E00000
FC0000
FC0000
FC0000
FF8000
FF8000
FF8000
FFF000
FFF000
FFF000
FFFE00
FFFE00
FFFE00
FFFFC0
FFFFC0
FFFFC0
FFFFC0
FFFFC0
FFFFC0
FFFE00
FFFE00
FFFE00
FFF000
FFF000
FFF000
FF8000
FF8000
FF8000
FC0000
FC0000
FC0000
E00000
E00000
E00000
ENDCHAR
STARTCHAR uniE0B1
ENCODING 57521
SWIDTH 500 0
DWIDTH 18 0
BBX 18 36 0 -9
BITMAP
E00000
E00000
E00000
1C0000
1C0000
1C0000
038000
038000
038000
007000
007000
007000
000E00
000E00
000E00
0001C0
0001C0
0001C0
0001C0
0001C0
0001C0
000E00
000E00
000E00
007000
007000
007000
038000
038000
038000
1C0000
1C0000
1C0000
E00000
E00000
E00000
ENDCHAR
STARTCHAR uniE0B2
ENCODING 57522
SWIDTH 500 0
DWIDTH 18 0
BBX 18 36 0 -9
BITMAP
0001C0
0001C0
0001C0
000FC0
000FC0
000FC0
007FC0
007FC0
007FC0
03FFC0
03FFC0
03FFC0
1FFFC0
1FFFC0
1FFFC0
FFFFC0
FFFFC0
FFFFC0
FFFFC0
FFFFC0
FFFFC0
1FFFC0
1FFFC0
1FFFC0
03FFC0
03FFC0
03FFC0
007FC0
007FC0
007FC0
000FC0
000FC0
000FC0
0001C0
0001C0
0001C0
ENDCHAR
STARTCHAR uniE0B3
ENCODING 57523
SWIDTH 500 0
DWIDTH 18 0
BBX 18 36 0 -9
BITMAP
0001C0
0001C0
0001C0
000E00
000E00
000E00
007000
007000
007000
038000
038000
038000
1C0000
1C0000
1C0000
E00000
E00000
E00000
E00000
E00000
E00000
1C0000
1C0000
1C0000
038000
038000
038000
007000
007000
007000
000E00
000E00
000E00
0001C0
0001C0
0001C0
ENDCHAR
STARTCHAR uniE0B4
ENCODING 57524
SWIDTH 500 0
DWIDTH 18 0
BBX 1 1 0 0
BITMAP
00
ENDCHAR
STARTCHAR uniE0B5
ENCODING 57525
SWIDTH 500 0
DWIDTH 18 0
BBX 1 1 0 0
BITMAP
00
ENDCHAR
STARTCHAR uniE0B6
ENCODING 57526
SWIDTH 500 0
DWIDTH 18 0
BBX 1 1 0 0
BITMAP
00
ENDCHAR
STARTCHAR uniE0B7
ENCODING 57527
SWIDTH 500 0
DWIDTH 18 0
BBX 1 1 0 0
BITMAP
00
ENDCHAR
STARTCHAR uniE0B8
ENCODING 57528
SWIDTH 500 0
DWIDTH 18 0
BBX 1 1 0 0
BITMAP
00
ENDCHAR
STARTCHAR uniE0B9
ENCODING 57529
SWIDTH 500 0
DWIDTH 18 0
BBX 1 1 0 0
BITMAP
00
ENDCHAR
STARTCHAR uniE0BA
ENCODING 57530
SWIDTH 500 0
DWIDTH 18 0
BBX 1 1 0 0
BITMAP
00
ENDCHAR
STARTCHAR uniE0BB
ENCODING 57531
SWIDTH 500 0
DWIDTH 18 0
BBX 1 1 0 0
BITMAP
00
ENDCHAR
STARTCHAR uniE0BC
ENCODING 57532
SWIDTH 500 0
DWIDTH 18 0
BBX 1 1 0 0
BITMAP
00
ENDCHAR
STARTCHAR uniE0BD
ENCODING 57533
SWIDTH 500 0
DWIDTH 18 0
BBX 1 1 0 0
BITMAP
00
ENDCHAR
STARTCHAR uniE0BE
ENCODING 57534
SWIDTH 500 0
DWIDTH 18 0
BBX 1 1 0 0
BITMAP
00
ENDCHAR
STARTCHAR uniE0BF
ENCODING 57535
SWIDTH 500 0
DWIDTH 18 0
BBX 1 1 0 0
BITMAP
00
ENDCHAR
ENDFONT
